<mxfile host="app.diagrams.net" agent="Mozilla/5.0 (Windows NT 10.0; Win64; x64) AppleWebKit/537.36 (KHTML, like Gecko) Chrome/135.0.0.0 Safari/537.36" version="26.2.14">
  <diagram name="Page-1" id="pgiMqyUjf4aCU3Kz9-66">
    <mxGraphModel dx="2517" dy="3262" grid="1" gridSize="10" guides="1" tooltips="1" connect="1" arrows="1" fold="1" page="1" pageScale="1" pageWidth="850" pageHeight="1100" math="0" shadow="0">
      <root>
        <mxCell id="0" />
        <mxCell id="1" parent="0" />
        <mxCell id="iwBYStO_40tfpdYds1Tp-1" value="Department" style="swimlane;whiteSpace=wrap;html=1;fillColor=#1ba1e2;fontColor=#ffffff;strokeColor=#006EAF;fillStyle=auto;" parent="1" vertex="1">
          <mxGeometry x="40" y="460" width="200" height="160" as="geometry" />
        </mxCell>
        <mxCell id="iwBYStO_40tfpdYds1Tp-2" value="ID{PK}" style="text;html=1;align=center;verticalAlign=middle;resizable=0;points=[];autosize=1;strokeColor=none;fillColor=none;" parent="iwBYStO_40tfpdYds1Tp-1" vertex="1">
          <mxGeometry x="15" y="38" width="60" height="30" as="geometry" />
        </mxCell>
        <mxCell id="iwBYStO_40tfpdYds1Tp-4" value="location" style="text;html=1;align=center;verticalAlign=middle;resizable=0;points=[];autosize=1;strokeColor=none;fillColor=none;" parent="iwBYStO_40tfpdYds1Tp-1" vertex="1">
          <mxGeometry x="15" y="98" width="60" height="30" as="geometry" />
        </mxCell>
        <mxCell id="iwBYStO_40tfpdYds1Tp-3" value="name" style="text;html=1;align=center;verticalAlign=middle;resizable=0;points=[];autosize=1;strokeColor=none;fillColor=none;" parent="iwBYStO_40tfpdYds1Tp-1" vertex="1">
          <mxGeometry x="15" y="68" width="50" height="30" as="geometry" />
        </mxCell>
        <mxCell id="iwBYStO_40tfpdYds1Tp-5" value="Doctor" style="swimlane;whiteSpace=wrap;html=1;fillColor=#1ba1e2;fontColor=#ffffff;strokeColor=#006EAF;" parent="1" vertex="1">
          <mxGeometry x="520" y="460" width="200" height="200" as="geometry" />
        </mxCell>
        <mxCell id="iwBYStO_40tfpdYds1Tp-7" value="Name" style="text;html=1;align=center;verticalAlign=middle;resizable=0;points=[];autosize=1;strokeColor=none;fillColor=none;" parent="iwBYStO_40tfpdYds1Tp-5" vertex="1">
          <mxGeometry x="5" y="60" width="60" height="30" as="geometry" />
        </mxCell>
        <mxCell id="iwBYStO_40tfpdYds1Tp-8" value="Phone number" style="text;html=1;align=center;verticalAlign=middle;resizable=0;points=[];autosize=1;strokeColor=none;fillColor=none;" parent="iwBYStO_40tfpdYds1Tp-5" vertex="1">
          <mxGeometry x="10" y="140" width="100" height="30" as="geometry" />
        </mxCell>
        <mxCell id="iwBYStO_40tfpdYds1Tp-6" value="ID {PK}" style="text;html=1;align=center;verticalAlign=middle;resizable=0;points=[];autosize=1;strokeColor=none;fillColor=none;" parent="iwBYStO_40tfpdYds1Tp-5" vertex="1">
          <mxGeometry x="10" y="38" width="60" height="30" as="geometry" />
        </mxCell>
        <mxCell id="iwBYStO_40tfpdYds1Tp-9" value="Address" style="text;html=1;align=center;verticalAlign=middle;resizable=0;points=[];autosize=1;strokeColor=none;fillColor=none;" parent="iwBYStO_40tfpdYds1Tp-5" vertex="1">
          <mxGeometry x="5" y="100" width="70" height="30" as="geometry" />
        </mxCell>
        <mxCell id="iwBYStO_40tfpdYds1Tp-10" value="Salary" style="text;html=1;align=center;verticalAlign=middle;resizable=0;points=[];autosize=1;strokeColor=none;fillColor=none;" parent="iwBYStO_40tfpdYds1Tp-5" vertex="1">
          <mxGeometry x="5" y="80" width="60" height="30" as="geometry" />
        </mxCell>
        <mxCell id="iwBYStO_40tfpdYds1Tp-11" value="Date of joining" style="text;html=1;align=center;verticalAlign=middle;resizable=0;points=[];autosize=1;strokeColor=none;fillColor=none;" parent="iwBYStO_40tfpdYds1Tp-5" vertex="1">
          <mxGeometry x="5" y="120" width="100" height="30" as="geometry" />
        </mxCell>
        <mxCell id="iwBYStO_40tfpdYds1Tp-29" value="Registered patient" style="swimlane;whiteSpace=wrap;html=1;fillColor=#1ba1e2;fontColor=#ffffff;strokeColor=#006EAF;" parent="1" vertex="1">
          <mxGeometry x="520" y="1120" width="200" height="290" as="geometry" />
        </mxCell>
        <mxCell id="iwBYStO_40tfpdYds1Tp-30" value="ID {PK}" style="text;html=1;align=center;verticalAlign=middle;resizable=0;points=[];autosize=1;strokeColor=none;fillColor=none;" parent="iwBYStO_40tfpdYds1Tp-29" vertex="1">
          <mxGeometry x="10" y="40" width="60" height="30" as="geometry" />
        </mxCell>
        <mxCell id="iwBYStO_40tfpdYds1Tp-31" value="Registration date" style="text;html=1;align=center;verticalAlign=middle;resizable=0;points=[];autosize=1;strokeColor=none;fillColor=none;" parent="iwBYStO_40tfpdYds1Tp-29" vertex="1">
          <mxGeometry x="10" y="130" width="110" height="30" as="geometry" />
        </mxCell>
        <mxCell id="iwBYStO_40tfpdYds1Tp-21" value="PatientName" style="text;html=1;align=center;verticalAlign=middle;resizable=0;points=[];autosize=1;strokeColor=none;fillColor=none;" parent="iwBYStO_40tfpdYds1Tp-29" vertex="1">
          <mxGeometry x="10" y="160" width="90" height="30" as="geometry" />
        </mxCell>
        <mxCell id="iwBYStO_40tfpdYds1Tp-22" value="PatientCountry" style="text;html=1;align=center;verticalAlign=middle;resizable=0;points=[];autosize=1;strokeColor=none;fillColor=none;" parent="iwBYStO_40tfpdYds1Tp-29" vertex="1">
          <mxGeometry x="10" y="100" width="100" height="30" as="geometry" />
        </mxCell>
        <mxCell id="iwBYStO_40tfpdYds1Tp-23" value="IC number" style="text;html=1;align=center;verticalAlign=middle;resizable=0;points=[];autosize=1;strokeColor=none;fillColor=none;" parent="iwBYStO_40tfpdYds1Tp-29" vertex="1">
          <mxGeometry x="10" y="70" width="80" height="30" as="geometry" />
        </mxCell>
        <mxCell id="iwBYStO_40tfpdYds1Tp-25" value="Date of birth" style="text;html=1;align=center;verticalAlign=middle;resizable=0;points=[];autosize=1;strokeColor=none;fillColor=none;" parent="iwBYStO_40tfpdYds1Tp-29" vertex="1">
          <mxGeometry x="10" y="190" width="90" height="30" as="geometry" />
        </mxCell>
        <mxCell id="iwBYStO_40tfpdYds1Tp-26" value="Sex" style="text;html=1;align=center;verticalAlign=middle;resizable=0;points=[];autosize=1;strokeColor=none;fillColor=none;" parent="iwBYStO_40tfpdYds1Tp-29" vertex="1">
          <mxGeometry x="10" y="210" width="40" height="30" as="geometry" />
        </mxCell>
        <mxCell id="iwBYStO_40tfpdYds1Tp-27" value="Phone number" style="text;html=1;align=center;verticalAlign=middle;resizable=0;points=[];autosize=1;strokeColor=none;fillColor=none;" parent="iwBYStO_40tfpdYds1Tp-29" vertex="1">
          <mxGeometry x="10" y="230" width="100" height="30" as="geometry" />
        </mxCell>
        <mxCell id="iwBYStO_40tfpdYds1Tp-28" value="Address" style="text;html=1;align=center;verticalAlign=middle;resizable=0;points=[];autosize=1;strokeColor=none;fillColor=none;" parent="iwBYStO_40tfpdYds1Tp-29" vertex="1">
          <mxGeometry x="10" y="250" width="70" height="30" as="geometry" />
        </mxCell>
        <mxCell id="iwBYStO_40tfpdYds1Tp-32" value="" style="endArrow=none;html=1;rounded=0;" parent="1" edge="1">
          <mxGeometry width="50" height="50" relative="1" as="geometry">
            <mxPoint x="240" y="540" as="sourcePoint" />
            <mxPoint x="520" y="540" as="targetPoint" />
          </mxGeometry>
        </mxCell>
        <mxCell id="iwBYStO_40tfpdYds1Tp-33" value="" style="endArrow=none;html=1;rounded=0;" parent="1" edge="1">
          <mxGeometry width="50" height="50" relative="1" as="geometry">
            <mxPoint x="240" y="580" as="sourcePoint" />
            <mxPoint x="520" y="580" as="targetPoint" />
          </mxGeometry>
        </mxCell>
        <mxCell id="iwBYStO_40tfpdYds1Tp-34" value="" style="endArrow=none;html=1;rounded=0;exitX=0.5;exitY=0;exitDx=0;exitDy=0;entryX=0.141;entryY=0.02;entryDx=0;entryDy=0;entryPerimeter=0;" parent="1" edge="1" target="SlIInPcPAZ8TnYqFgtZE-22" source="iwBYStO_40tfpdYds1Tp-29">
          <mxGeometry width="50" height="50" relative="1" as="geometry">
            <mxPoint x="619.52" y="820" as="sourcePoint" />
            <mxPoint x="620" y="730" as="targetPoint" />
          </mxGeometry>
        </mxCell>
        <mxCell id="iwBYStO_40tfpdYds1Tp-35" value="Consultation record" style="swimlane;whiteSpace=wrap;html=1;fillColor=#1ba1e2;fontColor=#ffffff;strokeColor=#006EAF;" parent="1" vertex="1">
          <mxGeometry x="120" y="1120" width="200" height="280" as="geometry" />
        </mxCell>
        <mxCell id="iwBYStO_40tfpdYds1Tp-39" value="Checkup doctor" style="text;html=1;align=center;verticalAlign=middle;resizable=0;points=[];autosize=1;strokeColor=none;fillColor=none;" parent="iwBYStO_40tfpdYds1Tp-35" vertex="1">
          <mxGeometry y="40" width="110" height="30" as="geometry" />
        </mxCell>
        <mxCell id="iwBYStO_40tfpdYds1Tp-40" value="Desc of symptoms" style="text;html=1;align=center;verticalAlign=middle;resizable=0;points=[];autosize=1;strokeColor=none;fillColor=none;" parent="iwBYStO_40tfpdYds1Tp-35" vertex="1">
          <mxGeometry y="70" width="120" height="30" as="geometry" />
        </mxCell>
        <mxCell id="iwBYStO_40tfpdYds1Tp-41" value="Diagnosis" style="text;html=1;align=center;verticalAlign=middle;resizable=0;points=[];autosize=1;strokeColor=none;fillColor=none;" parent="iwBYStO_40tfpdYds1Tp-35" vertex="1">
          <mxGeometry y="100" width="80" height="30" as="geometry" />
        </mxCell>
        <mxCell id="iwBYStO_40tfpdYds1Tp-42" value="Consultation number" style="text;html=1;align=center;verticalAlign=middle;resizable=0;points=[];autosize=1;strokeColor=none;fillColor=none;" parent="iwBYStO_40tfpdYds1Tp-35" vertex="1">
          <mxGeometry x="5" y="130" width="130" height="30" as="geometry" />
        </mxCell>
        <mxCell id="iwBYStO_40tfpdYds1Tp-45" value="Consultation charge" style="text;html=1;align=center;verticalAlign=middle;resizable=0;points=[];autosize=1;strokeColor=none;fillColor=none;" parent="iwBYStO_40tfpdYds1Tp-35" vertex="1">
          <mxGeometry x="5" y="160" width="130" height="30" as="geometry" />
        </mxCell>
        <mxCell id="iwBYStO_40tfpdYds1Tp-46" value="Checkup date" style="text;html=1;align=center;verticalAlign=middle;resizable=0;points=[];autosize=1;strokeColor=none;fillColor=none;" parent="iwBYStO_40tfpdYds1Tp-35" vertex="1">
          <mxGeometry x="5" y="190" width="100" height="30" as="geometry" />
        </mxCell>
        <mxCell id="iwBYStO_40tfpdYds1Tp-36" value="" style="endArrow=none;html=1;rounded=0;" parent="1" edge="1">
          <mxGeometry width="50" height="50" relative="1" as="geometry">
            <mxPoint x="320" y="1200" as="sourcePoint" />
            <mxPoint x="520" y="1200" as="targetPoint" />
          </mxGeometry>
        </mxCell>
        <mxCell id="SlIInPcPAZ8TnYqFgtZE-3" value="manages" style="text;html=1;align=center;verticalAlign=middle;resizable=0;points=[];autosize=1;strokeColor=none;fillColor=none;" parent="1" vertex="1">
          <mxGeometry x="355" y="500" width="70" height="30" as="geometry" />
        </mxCell>
        <mxCell id="SlIInPcPAZ8TnYqFgtZE-5" value="0.. 1" style="text;html=1;align=center;verticalAlign=middle;whiteSpace=wrap;rounded=0;" parent="1" vertex="1">
          <mxGeometry x="240" y="510" width="60" height="30" as="geometry" />
        </mxCell>
        <mxCell id="SlIInPcPAZ8TnYqFgtZE-6" value="" style="shape=flexArrow;endArrow=block;html=1;rounded=0;fillColor=#1ba1e2;strokeColor=#006EAF;" parent="1" edge="1">
          <mxGeometry width="50" height="50" relative="1" as="geometry">
            <mxPoint x="400" y="600" as="sourcePoint" />
            <mxPoint x="440" y="600" as="targetPoint" />
          </mxGeometry>
        </mxCell>
        <mxCell id="SlIInPcPAZ8TnYqFgtZE-7" value="" style="shape=flexArrow;endArrow=block;html=1;rounded=0;fillColor=#1ba1e2;strokeColor=#006EAF;" parent="1" edge="1">
          <mxGeometry width="50" height="50" relative="1" as="geometry">
            <mxPoint x="360" y="520" as="sourcePoint" />
            <mxPoint x="320" y="520" as="targetPoint" />
          </mxGeometry>
        </mxCell>
        <mxCell id="SlIInPcPAZ8TnYqFgtZE-9" value="Has" style="text;html=1;align=center;verticalAlign=middle;whiteSpace=wrap;rounded=0;" parent="1" vertex="1">
          <mxGeometry x="350" y="590" width="60" height="30" as="geometry" />
        </mxCell>
        <mxCell id="SlIInPcPAZ8TnYqFgtZE-10" value="1..1" style="text;html=1;align=center;verticalAlign=middle;whiteSpace=wrap;rounded=0;" parent="1" vertex="1">
          <mxGeometry x="460" y="510" width="60" height="30" as="geometry" />
        </mxCell>
        <mxCell id="SlIInPcPAZ8TnYqFgtZE-11" value="1..1" style="text;html=1;align=center;verticalAlign=middle;whiteSpace=wrap;rounded=0;" parent="1" vertex="1">
          <mxGeometry x="240" y="580" width="60" height="30" as="geometry" />
        </mxCell>
        <mxCell id="SlIInPcPAZ8TnYqFgtZE-12" value="1..*" style="text;html=1;align=center;verticalAlign=middle;whiteSpace=wrap;rounded=0;" parent="1" vertex="1">
          <mxGeometry x="460" y="580" width="60" height="30" as="geometry" />
        </mxCell>
        <mxCell id="SlIInPcPAZ8TnYqFgtZE-20" value="" style="shape=flexArrow;endArrow=block;html=1;rounded=0;fillColor=#1ba1e2;strokeColor=#006EAF;" parent="1" edge="1">
          <mxGeometry width="50" height="50" relative="1" as="geometry">
            <mxPoint x="569.29" y="870" as="sourcePoint" />
            <mxPoint x="569.29" y="830" as="targetPoint" />
          </mxGeometry>
        </mxCell>
        <mxCell id="SlIInPcPAZ8TnYqFgtZE-21" value="Consults" style="text;html=1;align=center;verticalAlign=middle;whiteSpace=wrap;rounded=0;direction=west;flipV=1;flipH=1;" parent="1" vertex="1">
          <mxGeometry x="540" y="870" width="60" height="30" as="geometry" />
        </mxCell>
        <mxCell id="SlIInPcPAZ8TnYqFgtZE-22" value="1..1" style="text;html=1;align=center;verticalAlign=middle;whiteSpace=wrap;rounded=0;" parent="1" vertex="1">
          <mxGeometry x="610" y="660" width="60" height="30" as="geometry" />
        </mxCell>
        <mxCell id="SlIInPcPAZ8TnYqFgtZE-23" value="1..1" style="text;html=1;align=center;verticalAlign=middle;whiteSpace=wrap;rounded=0;" parent="1" vertex="1">
          <mxGeometry x="620" y="1090" width="60" height="30" as="geometry" />
        </mxCell>
        <mxCell id="SlIInPcPAZ8TnYqFgtZE-28" value="&lt;font style=&quot;color: light-dark(rgb(0, 0, 0), rgb(255, 0, 0));&quot;&gt;(a)&lt;/font&gt;" style="text;html=1;align=center;verticalAlign=middle;whiteSpace=wrap;rounded=0;" parent="1" vertex="1">
          <mxGeometry x="350" y="610" width="60" height="30" as="geometry" />
        </mxCell>
        <mxCell id="13HiCJnkqjhyEO69rsad-1" value="Admission" style="swimlane;childLayout=stackLayout;horizontal=1;startSize=50;horizontalStack=0;rounded=1;fontSize=14;fontStyle=0;strokeWidth=2;resizeParent=0;resizeLast=1;shadow=0;dashed=0;align=center;arcSize=4;whiteSpace=wrap;html=1;fillColor=#008a00;fontColor=#ffffff;strokeColor=#005700;" vertex="1" parent="1">
          <mxGeometry x="297.5" y="780" width="160" height="210" as="geometry" />
        </mxCell>
        <mxCell id="13HiCJnkqjhyEO69rsad-2" value="Date of Admission&lt;br&gt;Department&lt;div&gt;ward&lt;/div&gt;&lt;div&gt;bed No.&lt;br&gt;Initial condition&lt;br&gt;diagnosis&lt;br&gt;Treatment&lt;br&gt;Attending doctor&lt;/div&gt;&lt;div&gt;Date of discharge&lt;/div&gt;&lt;div&gt;Admission No.&lt;/div&gt;" style="align=left;strokeColor=none;fillColor=none;spacingLeft=4;spacingRight=4;fontSize=12;verticalAlign=top;resizable=0;rotatable=0;part=1;html=1;whiteSpace=wrap;" vertex="1" parent="13HiCJnkqjhyEO69rsad-1">
          <mxGeometry y="50" width="160" height="160" as="geometry" />
        </mxCell>
        <mxCell id="13HiCJnkqjhyEO69rsad-3" value="0..*" style="text;html=1;align=center;verticalAlign=middle;whiteSpace=wrap;rounded=0;" vertex="1" parent="1">
          <mxGeometry x="360" y="670" width="35" height="20" as="geometry" />
        </mxCell>
        <mxCell id="13HiCJnkqjhyEO69rsad-6" value="" style="shape=mxgraph.arrows2.wedgeArrow;html=1;bendable=0;startWidth=5.833333333333336;fillColor=strokeColor;defaultFillColor=invert;defaultGradientColor=invert;rounded=0;entryX=1.002;entryY=0.38;entryDx=0;entryDy=0;entryPerimeter=0;" edge="1" parent="1">
          <mxGeometry width="100" height="100" relative="1" as="geometry">
            <mxPoint x="-115" y="-2115" as="sourcePoint" />
            <mxPoint x="-125" y="-2114.93" as="targetPoint" />
          </mxGeometry>
        </mxCell>
        <mxCell id="13HiCJnkqjhyEO69rsad-4" value="1..1" style="text;html=1;align=center;verticalAlign=middle;whiteSpace=wrap;rounded=0;" vertex="1" parent="1">
          <mxGeometry x="5" y="-2170" width="35" height="20" as="geometry" />
        </mxCell>
        <mxCell id="13HiCJnkqjhyEO69rsad-5" value="1..*" style="text;html=1;align=center;verticalAlign=middle;whiteSpace=wrap;rounded=0;" vertex="1" parent="1">
          <mxGeometry x="-110" y="-2100" width="35" height="20" as="geometry" />
        </mxCell>
        <mxCell id="13HiCJnkqjhyEO69rsad-7" value="receive" style="text;html=1;align=center;verticalAlign=middle;whiteSpace=wrap;rounded=0;" vertex="1" parent="1">
          <mxGeometry x="-175" y="-2130" width="50" height="30" as="geometry" />
        </mxCell>
        <mxCell id="13HiCJnkqjhyEO69rsad-8" value="Prescription" style="swimlane;childLayout=stackLayout;horizontal=1;startSize=50;horizontalStack=0;rounded=1;fontSize=14;fontStyle=0;strokeWidth=2;resizeParent=0;resizeLast=1;shadow=0;dashed=0;align=center;arcSize=4;whiteSpace=wrap;html=1;" vertex="1" parent="1">
          <mxGeometry x="-75" y="-2150" width="160" height="180" as="geometry" />
        </mxCell>
        <mxCell id="13HiCJnkqjhyEO69rsad-9" value="&lt;div&gt;Prescription No.&lt;/div&gt;&lt;div&gt;Date&lt;br&gt;&lt;/div&gt;Medication&lt;div&gt;Dosage&lt;/div&gt;&lt;div&gt;Frequency&lt;/div&gt;&lt;div&gt;Duration of use&lt;br&gt;Special instructions&lt;/div&gt;&lt;div&gt;Medication Charge&lt;/div&gt;" style="align=left;strokeColor=none;fillColor=none;spacingLeft=4;spacingRight=4;fontSize=12;verticalAlign=top;resizable=0;rotatable=0;part=1;html=1;whiteSpace=wrap;" vertex="1" parent="13HiCJnkqjhyEO69rsad-8">
          <mxGeometry y="50" width="160" height="130" as="geometry" />
        </mxCell>
        <mxCell id="13HiCJnkqjhyEO69rsad-10" value="1..1" style="text;html=1;align=center;verticalAlign=middle;whiteSpace=wrap;rounded=0;" vertex="1" parent="1">
          <mxGeometry x="85" y="-2100" width="35" height="20" as="geometry" />
        </mxCell>
        <mxCell id="iwBYStO_40tfpdYds1Tp-48" value="Checkup time" style="text;html=1;align=center;verticalAlign=middle;resizable=0;points=[];autosize=1;strokeColor=none;fillColor=none;" parent="1" vertex="1">
          <mxGeometry x="530" y="-1850" width="100" height="30" as="geometry" />
        </mxCell>
        <mxCell id="13HiCJnkqjhyEO69rsad-11" value="Prescription" style="swimlane;childLayout=stackLayout;horizontal=1;startSize=50;horizontalStack=0;rounded=1;fontSize=14;fontStyle=0;strokeWidth=2;resizeParent=0;resizeLast=1;shadow=0;dashed=0;align=center;arcSize=4;whiteSpace=wrap;html=1;fillColor=#008a00;fontColor=#ffffff;strokeColor=#005700;" vertex="1" parent="1">
          <mxGeometry x="880" y="1120" width="160" height="180" as="geometry" />
        </mxCell>
        <mxCell id="13HiCJnkqjhyEO69rsad-12" value="&lt;div&gt;Prescription No.&lt;/div&gt;&lt;div&gt;Date&lt;br&gt;&lt;/div&gt;Medication&lt;div&gt;Dosage&lt;/div&gt;&lt;div&gt;Frequency&lt;/div&gt;&lt;div&gt;Duration of use&lt;br&gt;Special instructions&lt;/div&gt;&lt;div&gt;Medication Charge&lt;/div&gt;" style="align=left;strokeColor=none;fillColor=none;spacingLeft=4;spacingRight=4;fontSize=12;verticalAlign=top;resizable=0;rotatable=0;part=1;html=1;whiteSpace=wrap;" vertex="1" parent="13HiCJnkqjhyEO69rsad-11">
          <mxGeometry y="50" width="160" height="130" as="geometry" />
        </mxCell>
        <mxCell id="13HiCJnkqjhyEO69rsad-13" value="Medication" style="swimlane;childLayout=stackLayout;horizontal=1;startSize=50;horizontalStack=0;rounded=1;fontSize=14;fontStyle=0;strokeWidth=2;resizeParent=0;resizeLast=1;shadow=0;dashed=0;align=center;arcSize=4;whiteSpace=wrap;html=1;fillColor=#008a00;fontColor=#ffffff;strokeColor=#005700;" vertex="1" parent="1">
          <mxGeometry x="1200" y="1120" width="160" height="150" as="geometry" />
        </mxCell>
        <mxCell id="13HiCJnkqjhyEO69rsad-14" value="Medication ID&lt;div&gt;name&lt;/div&gt;&lt;div&gt;Usage&lt;/div&gt;" style="align=left;strokeColor=none;fillColor=none;spacingLeft=4;spacingRight=4;fontSize=12;verticalAlign=top;resizable=0;rotatable=0;part=1;html=1;whiteSpace=wrap;" vertex="1" parent="13HiCJnkqjhyEO69rsad-13">
          <mxGeometry y="50" width="160" height="100" as="geometry" />
        </mxCell>
        <mxCell id="13HiCJnkqjhyEO69rsad-15" value="" style="endArrow=none;html=1;rounded=0;entryX=0;entryY=0.5;entryDx=0;entryDy=0;exitX=0.985;exitY=0.2;exitDx=0;exitDy=0;exitPerimeter=0;" edge="1" parent="1" source="13HiCJnkqjhyEO69rsad-12" target="13HiCJnkqjhyEO69rsad-13">
          <mxGeometry width="50" height="50" relative="1" as="geometry">
            <mxPoint x="1090" y="1180" as="sourcePoint" />
            <mxPoint x="1140" y="1130" as="targetPoint" />
          </mxGeometry>
        </mxCell>
        <mxCell id="13HiCJnkqjhyEO69rsad-16" value="" style="endArrow=none;html=1;rounded=0;entryX=0.003;entryY=0.231;entryDx=0;entryDy=0;entryPerimeter=0;" edge="1" parent="1" target="13HiCJnkqjhyEO69rsad-12">
          <mxGeometry width="50" height="50" relative="1" as="geometry">
            <mxPoint x="720" y="1200" as="sourcePoint" />
            <mxPoint x="880" y="1197" as="targetPoint" />
          </mxGeometry>
        </mxCell>
        <mxCell id="13HiCJnkqjhyEO69rsad-17" value="" style="endArrow=none;html=1;rounded=0;entryX=1;entryY=0;entryDx=0;entryDy=0;exitX=0;exitY=1;exitDx=0;exitDy=0;" edge="1" parent="1" source="iwBYStO_40tfpdYds1Tp-5" target="13HiCJnkqjhyEO69rsad-1">
          <mxGeometry width="50" height="50" relative="1" as="geometry">
            <mxPoint x="-60" y="950" as="sourcePoint" />
            <mxPoint x="-10" y="900" as="targetPoint" />
          </mxGeometry>
        </mxCell>
        <mxCell id="13HiCJnkqjhyEO69rsad-18" value="" style="endArrow=none;html=1;rounded=0;entryX=0.985;entryY=0.916;entryDx=0;entryDy=0;entryPerimeter=0;" edge="1" parent="1" target="13HiCJnkqjhyEO69rsad-2">
          <mxGeometry width="50" height="50" relative="1" as="geometry">
            <mxPoint x="520" y="1110" as="sourcePoint" />
            <mxPoint x="520" y="1010" as="targetPoint" />
          </mxGeometry>
        </mxCell>
      </root>
    </mxGraphModel>
  </diagram>
</mxfile>
